<svg version="1.1" xmlns="http://www.w3.org/2000/svg" viewBox="0 0 1512.971454495706 2129.030307466055" width="1512.971454495706" height="2129.030307466055">
  <!-- svg-source:excalidraw -->
  
  <defs>
    <style>
      @font-face {
        font-family: "Virgil";
        src: url("https://excalidraw.com/Virgil.woff2");
      }
      @font-face {
        font-family: "Cascadia";
        src: url("https://excalidraw.com/Cascadia.woff2");
      }
    </style>
  </defs>
  <g stroke-linecap="round" transform="translate(10 10) rotate(0 746.485727247853 1054.5151537330275)"><path d="M71.61 117.9 C71.61 117.9, 71.61 117.9, 71.61 117.9 M71.61 117.9 C71.61 117.9, 71.61 117.9, 71.61 117.9 M50.88 166.13 C73.68 143.54, 94.36 116.72, 147.98 54.44 M50.88 166.13 C78.14 134.98, 105.19 106.21, 147.98 54.44 M29.5 215.12 C76.01 161.86, 121.58 106.82, 181.05 40.78 M29.5 215.12 C84.35 151.85, 138.75 88.21, 181.05 40.78 M20.58 249.77 C93.94 164.21, 167.74 79.36, 212.15 29.39 M20.58 249.77 C66.12 197.97, 110.17 147.99, 212.15 29.39 M19.54 275.36 C84.79 201.99, 149.62 127.6, 236.69 25.55 M19.54 275.36 C77.08 210.73, 133.34 145.61, 236.69 25.55 M9.3 311.52 C67.09 244.67, 125.29 177.27, 269.1 12.65 M9.3 311.52 C63.53 248.81, 117.64 187.67, 269.1 12.65 M7.6 337.86 C86.02 245.92, 164.87 156.49, 293.64 8.81 M7.6 337.86 C120.8 209.69, 233.15 79.83, 293.64 8.81 M6.56 363.45 C91.04 267.43, 176.78 168.96, 314.25 9.49 M6.56 363.45 C117.85 234.99, 229.39 106.75, 314.25 9.49 M10.76 383.01 C118.6 262.48, 224.41 139.8, 336.16 8.67 M10.76 383.01 C101.17 279.76, 190.4 177.16, 336.16 8.67 M11.03 407.09 C144.08 256.26, 275.87 105.04, 358.08 7.85 M11.03 407.09 C135.63 262.71, 260.13 118.79, 358.08 7.85 M11.29 431.17 C96.16 335.3, 179.37 239.43, 380.65 6.27 M11.29 431.17 C130.05 292.36, 250.86 154.26, 380.65 6.27 M10.9 456.01 C112.81 341.41, 212.46 224.97, 401.91 6.2 M10.9 456.01 C160.48 281.04, 311.69 107.16, 401.91 6.2 M11.17 480.09 C112.4 364.07, 213.43 247.45, 423.17 6.13 M11.17 480.09 C129.52 342.95, 248.41 206.95, 423.17 6.13 M10.78 504.92 C148.55 347.36, 285.69 189.06, 444.43 6.06 M10.78 504.92 C155.34 337.23, 300.3 170.56, 444.43 6.06 M11.05 529.01 C161.23 353.79, 312.81 179.91, 465.69 5.99 M11.05 529.01 C104.95 418.18, 199.64 309.29, 465.69 5.99 M11.31 553.09 C134.84 413.12, 254.81 273.16, 486.3 6.68 M11.31 553.09 C108.86 438.51, 208.15 324.94, 486.3 6.68 M10.92 577.92 C173.72 388.72, 336.23 200.02, 507.56 6.61 M10.92 577.92 C138.72 433.54, 264.58 288.98, 507.56 6.61 M11.19 602.01 C143.42 449.79, 277.07 296.34, 528.82 6.54 M11.19 602.01 C179.63 407.82, 349.22 213.06, 528.82 6.54 M10.8 626.84 C207.95 402.23, 404.5 175.32, 550.08 6.47 M10.8 626.84 C172.11 445.73, 331.12 262.61, 550.08 6.47 M11.06 650.92 C232.64 399.19, 452.17 146.28, 571.34 6.4 M11.06 650.92 C190.61 442.63, 373.07 232.61, 571.34 6.4 M11.33 675.01 C158.35 504.24, 305.85 333.42, 592.6 6.33 M11.33 675.01 C195.8 459.51, 383.38 243.9, 592.6 6.33 M10.94 699.84 C144.54 545.4, 278.34 392.24, 613.86 6.26 M10.94 699.84 C218.94 460.95, 426.75 222.17, 613.86 6.26 M11.21 723.92 C195.4 510.66, 381.43 296.24, 635.12 6.2 M11.21 723.92 C158.17 556, 304.83 388.05, 635.12 6.2 M10.82 748.76 C263.27 456.16, 516.38 164.43, 656.38 6.13 M10.82 748.76 C166.67 570.82, 322.83 390.79, 656.38 6.13 M11.08 772.84 C205.05 548.42, 398.83 324.78, 677.64 6.06 M11.08 772.84 C174.62 584.4, 338.25 395.79, 677.64 6.06 M11.35 796.92 C172.39 610.31, 336.43 423.11, 698.24 6.74 M11.35 796.92 C279.45 492.97, 544.37 188.04, 698.24 6.74 M10.96 821.76 C226.34 570.15, 443.63 321.8, 719.5 6.67 M10.96 821.76 C206.93 593.08, 405.98 363.84, 719.5 6.67 M11.23 845.84 C285.92 525.44, 562.43 208.21, 740.76 6.61 M11.23 845.84 C202.82 631.59, 390.31 415.57, 740.76 6.61 M10.84 870.68 C246.34 597.45, 480.45 327.58, 762.02 6.54 M10.84 870.68 C294.19 544.02, 576.8 218.54, 762.02 6.54 M11.1 894.76 C262.78 605.62, 513.26 317.64, 783.28 6.47 M11.1 894.76 C207.57 669.95, 401.77 446.25, 783.28 6.47 M11.37 918.84 C300.44 589.29, 586.52 260.37, 804.54 6.4 M11.37 918.84 C237.05 658.21, 462.55 399.56, 804.54 6.4 M10.98 943.68 C233.17 684.7, 456.03 428.73, 825.81 6.33 M10.98 943.68 C231.7 687.26, 456.6 428.95, 825.81 6.33 M11.25 967.76 C340.8 589.81, 670.08 210.84, 847.07 6.26 M11.25 967.76 C231.19 710.17, 452.95 455.95, 847.07 6.26 M10.86 992.6 C275.66 688.3, 540.14 383.01, 868.33 6.19 M10.86 992.6 C307.01 648.13, 604.53 306.16, 868.33 6.19 M11.12 1016.68 C222.24 776.97, 430.79 535.95, 889.59 6.12 M11.12 1016.68 C270.11 714.44, 530.15 415.85, 889.59 6.12 M11.39 1040.76 C190.03 833.87, 372.33 624.24, 910.85 6.05 M11.39 1040.76 C371.03 630.04, 727.65 220.39, 910.85 6.05 M11 1065.6 C199.46 842.93, 389.57 622.43, 931.45 6.74 M11 1065.6 C250.4 787.67, 493.06 508.63, 931.45 6.74 M11.27 1089.68 C215.87 858.64, 416.83 628.54, 952.71 6.67 M11.27 1089.68 C261.63 800.25, 514.88 508.34, 952.71 6.67 M10.88 1114.51 C305.91 776.6, 602.29 434.7, 973.97 6.6 M10.88 1114.51 C365.8 709.19, 720.21 301.41, 973.97 6.6 M11.14 1138.6 C291.53 811.28, 576.08 485.36, 995.23 6.53 M11.14 1138.6 C324.49 773.23, 640.79 408.96, 995.23 6.53 M11.41 1162.68 C241.57 902.75, 472.18 637.8, 1016.49 6.46 M11.41 1162.68 C338.96 787.52, 663.65 413.75, 1016.49 6.46 M11.02 1187.51 C277.78 878.01, 545.38 569.97, 1037.75 6.39 M11.02 1187.51 C241.24 927.14, 469.41 664.53, 1037.75 6.39 M11.28 1211.6 C370.57 795.69, 733.57 378.93, 1059.01 6.33 M11.28 1211.6 C376.48 787.74, 746.11 363.16, 1059.01 6.33 M10.89 1236.43 C282.94 924.32, 554.9 612.41, 1080.27 6.26 M10.89 1236.43 C383.34 799.81, 761.18 365.9, 1080.27 6.26 M11.16 1260.51 C371.4 848.65, 728.41 436.52, 1101.53 6.19 M11.16 1260.51 C445.59 764.38, 876.66 269.12, 1101.53 6.19 M11.43 1284.6 C315.79 929.59, 621.65 576.25, 1124.76 3.85 M11.43 1284.6 C247.31 1017.75, 477.53 751.97, 1124.76 3.85 M11.04 1309.43 C379.41 887.96, 749.83 461.21, 1145.36 4.54 M11.04 1309.43 C349.74 916.17, 690.68 524.05, 1145.36 4.54 M11.3 1333.51 C264.16 1037.18, 520.25 741.16, 1167.28 3.72 M11.3 1333.51 C469.1 807.64, 921.88 286.47, 1167.28 3.72 M10.91 1358.35 C462.49 839.55, 910.82 324.19, 1186.57 5.91 M10.91 1358.35 C288.7 1047.42, 560.92 733.72, 1186.57 5.91 M11.18 1382.43 C346.15 1001.38, 679.76 616.33, 1207.83 5.84 M11.18 1382.43 C285.14 1073.78, 555.41 762.51, 1207.83 5.84 M11.45 1406.51 C284.5 1094.58, 552.99 786.74, 1225.81 9.55 M11.45 1406.51 C328.13 1034.78, 648.5 666.24, 1225.81 9.55 M11.06 1431.35 C400.61 980.85, 792.72 529.56, 1243.79 13.25 M11.06 1431.35 C428.04 947.19, 847.71 464.48, 1243.79 13.25 M11.32 1455.43 C336.16 1080.47, 659.98 706.61, 1257.18 22.24 M11.32 1455.43 C493.07 906.3, 971.61 355.36, 1257.18 22.24 M10.93 1480.27 C387.63 1052.57, 763.22 621.17, 1274.5 26.7 M10.93 1480.27 C360.76 1071.08, 714.2 665.09, 1274.5 26.7 M11.2 1504.35 C276.42 1204.64, 536.75 904.5, 1291.83 31.16 M11.2 1504.35 C392.68 1075.31, 768.67 643.09, 1291.83 31.16 M11.47 1528.43 C347.78 1136.37, 688.69 744.77, 1307.84 37.13 M11.47 1528.43 C398.37 1076.41, 787.09 629.25, 1307.84 37.13 M11.08 1553.27 C320.86 1188.71, 636.24 826.33, 1323.85 43.09 M11.08 1553.27 C282.57 1246.3, 551.26 937.42, 1323.85 43.09 M11.34 1577.35 C479.82 1037.33, 946.85 500.87, 1338.55 50.57 M11.34 1577.35 C507.79 1007.19, 999.02 442.46, 1338.55 50.57 M11.61 1601.43 C341.28 1222.78, 674.78 840.24, 1352.59 58.81 M11.61 1601.43 C338.46 1228.34, 662.48 855.04, 1352.59 58.81 M11.22 1626.27 C536.32 1024.69, 1055.92 427, 1367.29 66.28 M11.22 1626.27 C517.06 1049.94, 1021.09 469.71, 1367.29 66.28 M11.49 1650.35 C546.06 1032.12, 1083.71 415.57, 1380.02 76.03 M11.49 1650.35 C348.79 1263.51, 681.52 880.19, 1380.02 76.03 M11.1 1675.19 C385.03 1248.14, 753.96 824.65, 1392.1 86.52 M11.1 1675.19 C428.49 1199.18, 841.14 725.05, 1392.1 86.52 M11.36 1699.27 C463.02 1178.37, 918.06 655.68, 1403.52 97.77 M11.36 1699.27 C513.92 1118.33, 1014.59 542.21, 1403.52 97.77 M11.63 1723.35 C577.55 1073.69, 1137.94 428.23, 1414.94 109.03 M11.63 1723.35 C373.32 1305.66, 734.08 890.17, 1414.94 109.03 M1.4 1759.51 C558.48 1116.82, 1116.83 474.73, 1425.05 121.79 M1.4 1759.51 C359.9 1348.38, 720.88 934.1, 1425.05 121.79 M2.98 1782.08 C385.89 1345.62, 767.06 908.08, 1435.15 134.55 M2.98 1782.08 C379.2 1342.73, 760.65 902.55, 1435.15 134.55 M5.21 1803.9 C312.4 1448.79, 620.87 1094.52, 1443.29 149.57 M5.21 1803.9 C439.39 1310.57, 868.98 816.15, 1443.29 149.57 M8.1 1824.96 C349.73 1431.99, 691.77 1038.62, 1451.43 164.6 M8.1 1824.96 C379.95 1393.44, 752.77 964.49, 1451.43 164.6 M11.65 1845.27 C457.97 1323.13, 908.87 804.39, 1459.57 179.62 M11.65 1845.27 C564.41 1198.77, 1122.38 557.27, 1459.57 179.62 M16.51 1864.07 C551.51 1238.01, 1090.99 616.67, 1466.4 196.16 M16.51 1864.07 C412.89 1404.29, 813.24 943.43, 1466.4 196.16 M21.37 1882.87 C439.05 1412.49, 852.39 937.47, 1473.22 212.69 M21.37 1882.87 C471.67 1358.62, 923.45 838.34, 1473.22 212.69 M26.22 1901.66 C344.03 1539.7, 660.69 1176.26, 1478.08 231.49 M26.22 1901.66 C428.59 1441.06, 830.85 978.37, 1478.08 231.49 M33.05 1918.2 C363.31 1543.28, 687.6 1168.14, 1482.94 250.29 M33.05 1918.2 C603.51 1264.24, 1170.14 612.56, 1482.94 250.29 M39.22 1935.49 C341.82 1581.27, 644.85 1233.47, 1487.8 269.09 M39.22 1935.49 C511.98 1382.69, 988.16 834.47, 1487.8 269.09 M48.02 1949.76 C497.63 1437, 944.15 923.5, 1490.69 290.15 M48.02 1949.76 C405.49 1538.04, 763.43 1125.76, 1490.69 290.15 M56.16 1964.78 C444.19 1526.41, 828.14 1084.69, 1494.24 310.46 M56.16 1964.78 C362.75 1616.17, 670.41 1262.74, 1494.24 310.46 M64.29 1979.81 C362.99 1641.91, 657.07 1304.75, 1495.82 333.03 M64.29 1979.81 C386.53 1610.4, 703.77 1245.05, 1495.82 333.03 M74.4 1992.57 C354.99 1663.43, 640.64 1333.96, 1498.05 354.85 M74.4 1992.57 C389.3 1628.13, 710.83 1258.94, 1498.05 354.85 M84.51 2005.33 C462.94 1579.97, 834.89 1151.92, 1497.66 379.69 M84.51 2005.33 C591.03 1421.7, 1101.53 834.44, 1497.66 379.69 M95.27 2017.34 C519.54 1525.46, 949.87 1031.09, 1497.93 403.77 M95.27 2017.34 C614.6 1413.75, 1135.26 815.39, 1497.93 403.77 M106.69 2028.59 C553.38 1508.95, 1006.22 988.66, 1498.19 427.85 M106.69 2028.59 C420.11 1666.19, 740.2 1298.38, 1498.19 427.85 M119.42 2038.33 C623.47 1453.39, 1132.91 867.92, 1497.8 452.69 M119.42 2038.33 C627.88 1455.46, 1136.02 870.68, 1497.8 452.69 M132.15 2048.07 C569.27 1541.32, 1006.47 1039.6, 1498.07 476.77 M132.15 2048.07 C546.83 1569.01, 959.77 1094.99, 1498.07 476.77 M146.2 2056.31 C503.68 1655.5, 857.75 1249.69, 1498.34 500.85 M146.2 2056.31 C488.69 1669.36, 827.46 1280.02, 1498.34 500.85 M160.24 2064.54 C510.14 1663.04, 858.17 1261.34, 1497.95 525.69 M160.24 2064.54 C655.18 1499.49, 1144.89 936.83, 1497.95 525.69 M172.32 2075.04 C625.79 1556.89, 1077.09 1038.25, 1498.21 549.77 M172.32 2075.04 C649.39 1525.85, 1125.9 977.82, 1498.21 549.77 M187.67 2081.76 C515.97 1702.69, 846.36 1325.1, 1497.82 574.6 M187.67 2081.76 C605.43 1594.22, 1027.09 1109.04, 1497.82 574.6 M203.68 2087.73 C527.54 1709.75, 854.97 1333.42, 1498.09 598.69 M203.68 2087.73 C656.11 1562.67, 1112.4 1038.19, 1498.09 598.69 M219.7 2093.7 C575.94 1683.23, 937.63 1267.1, 1498.35 622.77 M219.7 2093.7 C705.26 1534.36, 1193.69 971.43, 1498.35 622.77 M237.02 2098.16 C656.63 1612.4, 1079 1126.81, 1497.96 647.6 M237.02 2098.16 C734.68 1517.84, 1237.27 938.88, 1497.96 647.6 M254.34 2102.62 C545.12 1774.21, 834.4 1443.35, 1498.23 671.69 M254.34 2102.62 C594.81 1710.45, 934.03 1321.1, 1498.23 671.69 M272.32 2106.32 C526.48 1821.81, 779.97 1531.21, 1497.84 696.52 M272.32 2106.32 C740.92 1569.24, 1206.64 1033.72, 1497.84 696.52 M291.62 2108.52 C606.23 1743.67, 926.42 1376.3, 1498.11 720.6 M291.62 2108.52 C569.13 1790.47, 846.79 1471.25, 1498.11 720.6 M311.56 2109.96 C754.84 1591.36, 1201.49 1077.35, 1498.37 744.69 M311.56 2109.96 C658.03 1717.06, 1001.24 1322.67, 1498.37 744.69 M331.51 2111.4 C603.87 1793.09, 878.63 1476.75, 1497.98 769.52 M331.51 2111.4 C570.01 1833.27, 809.63 1557.45, 1497.98 769.52 M352.12 2112.08 C627.08 1787.67, 906.88 1467.19, 1498.25 793.6 M352.12 2112.08 C624.63 1807.88, 893.07 1499.56, 1498.25 793.6 M374.69 2110.5 C696.37 1746.01, 1014.77 1380.32, 1497.86 818.44 M374.69 2110.5 C666.93 1774.35, 960.04 1436.53, 1497.86 818.44 M395.95 2110.43 C714.76 1740.53, 1034.64 1372.01, 1498.13 842.52 M395.95 2110.43 C654.48 1819.89, 909.8 1525.78, 1498.13 842.52 M417.21 2110.37 C668.1 1815.69, 921.29 1523.47, 1498.39 866.6 M417.21 2110.37 C818.55 1643.45, 1221.11 1180.41, 1498.39 866.6 M438.47 2110.3 C741.38 1753.58, 1047.68 1401.31, 1498 891.44 M438.47 2110.3 C664.03 1851.67, 892.26 1589.32, 1498 891.44 M459.73 2110.23 C672.51 1859.21, 889.5 1611.26, 1498.27 915.52 M459.73 2110.23 C696.69 1835.44, 931.53 1564.99, 1498.27 915.52 M480.99 2110.16 C781.7 1761.45, 1086.7 1411.42, 1497.88 940.36 M480.99 2110.16 C716.01 1846.98, 948.28 1579.86, 1497.88 940.36 M502.25 2110.09 C703.83 1879.48, 906.04 1646.91, 1498.15 964.44 M502.25 2110.09 C729.51 1854.21, 953.07 1596.89, 1498.15 964.44 M523.51 2110.02 C784.7 1812.73, 1044.29 1512.95, 1498.41 988.52 M523.51 2110.02 C747.42 1853.52, 968.45 1598.87, 1498.41 988.52 M544.77 2109.95 C844.63 1765.74, 1143.04 1421.59, 1498.02 1013.36 M544.77 2109.95 C811.97 1803.87, 1077.91 1498.64, 1498.02 1013.36 M565.37 2110.64 C780.04 1868.64, 990.25 1625.38, 1498.29 1037.44 M565.37 2110.64 C830.24 1808.2, 1091.15 1508.11, 1498.29 1037.44 M586.63 2110.57 C875.88 1777.4, 1163.25 1446.31, 1497.9 1062.28 M586.63 2110.57 C777.28 1883.96, 971.9 1660.15, 1497.9 1062.28 M607.89 2110.5 C871.69 1802.25, 1137.76 1495.38, 1498.17 1086.36 M607.89 2110.5 C934.66 1731.05, 1263.35 1353.21, 1498.17 1086.36 M629.15 2110.43 C865.83 1834.87, 1103.62 1561.36, 1498.43 1110.44 M629.15 2110.43 C948.05 1741.11, 1268.01 1373.33, 1498.43 1110.44 M650.41 2110.36 C902.42 1825.44, 1151.84 1538.24, 1498.04 1135.28 M650.41 2110.36 C982.1 1727.94, 1311.7 1349.36, 1498.04 1135.28 M671.67 2110.29 C954.71 1784.74, 1239.26 1459.5, 1498.31 1159.36 M671.67 2110.29 C997.97 1738.55, 1321.52 1366.31, 1498.31 1159.36 M692.93 2110.22 C942.75 1824.06, 1192.26 1538.17, 1497.92 1184.19 M692.93 2110.22 C972.72 1789.45, 1250.16 1470.08, 1497.92 1184.19 M714.19 2110.15 C1000.59 1782.53, 1284.36 1455.38, 1498.19 1208.28 M714.19 2110.15 C905.57 1885.29, 1099.01 1662.3, 1498.19 1208.28 M735.45 2110.09 C989.52 1818.83, 1239.89 1531.61, 1498.45 1232.36 M735.45 2110.09 C1006.25 1797.29, 1277.89 1485.5, 1498.45 1232.36 M756.71 2110.02 C950.7 1887.46, 1143.82 1664.86, 1498.06 1257.19 M756.71 2110.02 C912.45 1933.4, 1067.23 1753.94, 1498.06 1257.19 M777.98 2109.95 C939.21 1924.51, 1099.46 1739.92, 1498.33 1281.28 M777.98 2109.95 C963.61 1899.91, 1147.29 1689.18, 1498.33 1281.28 M799.24 2109.88 C977.93 1905.05, 1154.94 1701.66, 1497.94 1306.11 M799.24 2109.88 C987.12 1895.17, 1173.62 1680.73, 1497.94 1306.11 M820.5 2109.81 C1059.31 1839.71, 1297.97 1565.55, 1498.2 1330.19 M820.5 2109.81 C1080.57 1813.01, 1340.78 1514.15, 1498.2 1330.19 M841.1 2110.5 C1001.42 1929.05, 1161.43 1745.53, 1498.47 1354.28 M841.1 2110.5 C1048.99 1871.05, 1259.2 1629.48, 1498.47 1354.28 M862.36 2110.43 C1088.54 1845.42, 1318.37 1582.68, 1498.08 1379.11 M862.36 2110.43 C1118.81 1816.43, 1372.99 1524.07, 1498.08 1379.11 M883.62 2110.36 C1017.41 1953.93, 1151.76 1800.41, 1498.35 1403.19 M883.62 2110.36 C1118.5 1844.17, 1351.74 1575.31, 1498.35 1403.19 M904.88 2110.29 C1133.03 1845.96, 1360.96 1583.28, 1497.96 1428.03 M904.88 2110.29 C1065.45 1924.43, 1226.9 1738.46, 1497.96 1428.03 M926.14 2110.22 C1073.12 1941.24, 1222.82 1770.37, 1498.22 1452.11 M926.14 2110.22 C1141.5 1866.38, 1354.85 1621.57, 1498.22 1452.11 M947.4 2110.15 C1084.17 1954.98, 1218.98 1798.17, 1498.49 1476.19 M947.4 2110.15 C1101.99 1930.94, 1258.17 1752.15, 1498.49 1476.19 M968.66 2110.08 C1145.81 1907.04, 1320.39 1704.58, 1498.1 1501.03 M968.66 2110.08 C1148.39 1905.87, 1326.33 1701.2, 1498.1 1501.03 M989.92 2110.01 C1118.04 1959.95, 1247.59 1809.81, 1498.37 1525.11 M989.92 2110.01 C1103.59 1978.31, 1217.33 1846.96, 1498.37 1525.11 M1011.18 2109.94 C1148.99 1950.08, 1288.8 1789.5, 1497.98 1549.95 M1011.18 2109.94 C1120.14 1987.2, 1227.88 1863.1, 1497.98 1549.95 M1032.44 2109.87 C1130.4 2000.05, 1226.15 1890.02, 1498.24 1574.03 M1032.44 2109.87 C1127.16 2000.86, 1221.81 1891.48, 1498.24 1574.03 M1053.7 2109.81 C1174.23 1971.89, 1292.23 1835.23, 1498.51 1598.11 M1053.7 2109.81 C1181.94 1961.74, 1310.51 1814.12, 1498.51 1598.11 M1074.96 2109.74 C1236.19 1923.02, 1398.71 1737.45, 1498.12 1622.95 M1074.96 2109.74 C1177.76 1991.09, 1280.27 1873.76, 1498.12 1622.95 M1096.22 2109.67 C1214.97 1972.52, 1335.08 1833.66, 1498.39 1647.03 M1096.22 2109.67 C1222.06 1962.85, 1348.84 1817.23, 1498.39 1647.03 M1116.83 2110.35 C1255.03 1952.72, 1393.05 1794.23, 1498 1671.87 M1116.83 2110.35 C1218.06 1992.57, 1320.19 1875.55, 1498 1671.87 M1138.09 2110.28 C1244.62 1987.07, 1350.85 1862.95, 1498.26 1695.95 M1138.09 2110.28 C1278.04 1949.68, 1418.02 1788.76, 1498.26 1695.95 M1152.79 2117.76 C1287.79 1960, 1424.1 1803.73, 1498.53 1720.03 M1152.79 2117.76 C1264.41 1989.23, 1375.9 1860.43, 1498.53 1720.03 M1176.01 2115.43 C1262.15 2015.07, 1348.08 1916.05, 1500.11 1742.6 M1176.01 2115.43 C1274.58 2000.87, 1374.62 1886.92, 1500.11 1742.6 M1207.77 2103.28 C1274.76 2026.34, 1342.03 1947.02, 1499.72 1767.44 M1207.77 2103.28 C1314.48 1979.19, 1423.42 1854.98, 1499.72 1767.44 M1232.97 2098.69 C1312.73 2007.21, 1391.98 1916.52, 1501.3 1790.01 M1232.97 2098.69 C1337.52 1980.12, 1440.27 1861.11, 1501.3 1790.01 M1252.26 2100.88 C1329.96 2011.81, 1406.99 1925.23, 1498.28 1817.87 M1252.26 2100.88 C1320.23 2022.43, 1388.75 1944.66, 1498.28 1817.87 M1285.33 2087.23 C1360.14 2000.4, 1434.74 1915.24, 1491.33 1850.25 M1285.33 2087.23 C1338.44 2028.77, 1389.74 1969.54, 1491.33 1850.25 M1318.4 2073.58 C1374.61 2008.89, 1431.08 1940.68, 1481.1 1886.41 M1318.4 2073.58 C1353.65 2032.28, 1390.34 1990.45, 1481.1 1886.41 M1361.96 2047.85 C1398.14 2005.99, 1436.89 1963.88, 1470.87 1922.56 M1361.96 2047.85 C1386.87 2017.42, 1412.93 1987.94, 1470.87 1922.56" stroke="#868e96" stroke-width="2" fill="none"></path><path d="M373.24 0 M373.24 0 C639.33 -1.45, 904.72 -2.01, 1119.73 0 M373.24 0 C594.71 0.14, 815.25 -0.32, 1119.73 0 M1119.73 0 C1369.88 -1.08, 1491.52 125.6, 1492.97 373.24 M1119.73 0 C1369.79 1.02, 1492.53 126.52, 1492.97 373.24 M1492.97 373.24 C1491.6 850.04, 1492.13 1326.95, 1492.97 1735.79 M1492.97 373.24 C1491.09 699.32, 1490.86 1024.79, 1492.97 1735.79 M1492.97 1735.79 C1494.53 1984.14, 1370.05 2111.02, 1119.73 2109.03 M1492.97 1735.79 C1494.27 1986.17, 1368.4 2111.27, 1119.73 2109.03 M1119.73 2109.03 C942.36 2110.35, 766.12 2110.76, 373.24 2109.03 M1119.73 2109.03 C897.57 2111.15, 676.14 2111.07, 373.24 2109.03 M373.24 2109.03 C126.28 2108.49, 0.93 1983.29, 0 1735.79 M373.24 2109.03 C124.76 2111.05, 0.69 1985.87, 0 1735.79 M0 1735.79 C-4.34 1220.65, -5.02 705.9, 0 373.24 M0 1735.79 C1.5 1286.55, 1.58 836.7, 0 373.24 M0 373.24 C0.05 124.02, 123.12 -0.71, 373.24 0 M0 373.24 C-2.27 124.21, 124.8 1.31, 373.24 0" stroke="#000000" stroke-width="4" fill="none"></path></g><g stroke-linecap="round"><g transform="translate(124.57794610397832 87.3300100004526) rotate(0 641.3779202494861 952.063279772402)"><path d="M-2.31 2.77 C211.54 319.21, 1070.68 1583.22, 1285.07 1899.95 M1.63 1.81 C215.02 318.39, 1069.93 1586.26, 1283.35 1902.32" stroke="#868e96" stroke-width="4" fill="none"></path></g></g><g stroke-linecap="round"><g transform="translate(1372.2999290079388 109.15922243596651) rotate(0 -646.6740382923308 942.4104462983187)"><path d="M2.77 0.96 C-105.81 158.18, -433.91 627.41, -650.17 941.01 C-866.44 1254.6, -1187 1725.23, -1294.8 1882.53 M0.83 -0.99 C-107.02 156.91, -428.88 630.11, -645.03 944.58 C-861.19 1259.04, -1187.45 1729.87, -1296.12 1885.81" stroke="#868e96" stroke-width="4" fill="none"></path></g></g></svg>